# Blender v2.78 (sub 0) OBJ File: 'barrel.blend'
# www.blender.org
mtllib barrel.mtl
o Cylinder_Cylinder.001
v 0.000000 1.316979 -1.000000
v 0.382683 1.316979 -0.923880
v 0.707107 1.316979 -0.707107
v 0.923880 1.316979 -0.382683
v 1.000000 1.316979 0.000000
v 0.923880 1.316979 0.382684
v 0.707107 1.316979 0.707107
v 0.382683 1.316979 0.923880
v 0.000000 1.316979 1.000000
v -0.382683 1.316979 0.923880
v -0.707107 1.316979 0.707107
v -0.923880 1.316979 0.382684
v -1.000000 1.316979 -0.000000
v -0.923879 1.316979 -0.382684
v -0.707107 1.316979 -0.707107
v -0.382683 1.316979 -0.923880
v -0.000000 0.490670 -1.117718
v 0.427732 0.490670 -1.032637
v 0.790346 0.490670 -0.790346
v 1.032637 0.490670 -0.427732
v 1.117718 0.490670 0.000000
v 1.032637 0.490670 0.427732
v 0.790346 0.490670 0.790346
v 0.427732 0.490670 1.032637
v 0.000000 0.490670 1.117718
v -0.427732 0.490670 1.032637
v -0.790346 0.490670 0.790346
v -1.032637 0.490670 0.427732
v -1.117718 0.490670 -0.000000
v -1.032637 0.490670 -0.427732
v -0.790346 0.490670 -0.790346
v -0.427732 0.490670 -1.032637
v 0.000000 1.316979 -0.891047
v 0.340989 1.316979 -0.823220
v 0.630065 1.316979 -0.630065
v 0.823220 1.316979 -0.340989
v 0.891047 1.316979 0.000000
v 0.823220 1.316979 0.340989
v 0.630065 1.316979 0.630065
v 0.340989 1.316979 0.823220
v 0.000000 1.316979 0.891047
v -0.340989 1.316979 0.823220
v -0.630065 1.316979 0.630066
v -0.823220 1.316979 0.340989
v -0.891047 1.316979 -0.000000
v -0.823220 1.316979 -0.340989
v -0.630065 1.316979 -0.630066
v -0.340988 1.316979 -0.823220
v 0.000000 1.228701 -0.891047
v 0.340989 1.228701 -0.823220
v 0.630065 1.228701 -0.630065
v 0.823220 1.228701 -0.340989
v 0.891047 1.228701 0.000000
v 0.823220 1.228701 0.340989
v 0.630065 1.228701 0.630065
v 0.340989 1.228701 0.823220
v 0.000000 1.228701 0.891047
v -0.340989 1.228701 0.823220
v -0.630065 1.228701 0.630066
v -0.823220 1.228701 0.340989
v -0.891047 1.228701 -0.000000
v -0.823220 1.228701 -0.340989
v -0.630065 1.228701 -0.630066
v -0.340988 1.228701 -0.823220
v 0.000000 -1.316979 -1.000000
v 0.382683 -1.316979 -0.923880
v 0.707107 -1.316979 -0.707107
v 0.923880 -1.316979 -0.382683
v 1.000000 -1.316979 0.000000
v 0.923880 -1.316979 0.382684
v 0.707107 -1.316979 0.707107
v 0.382683 -1.316979 0.923880
v 0.000000 -1.316979 1.000000
v -0.382683 -1.316979 0.923880
v -0.707107 -1.316979 0.707107
v -0.923880 -1.316979 0.382684
v -1.000000 -1.316979 -0.000000
v -0.923879 -1.316979 -0.382684
v -0.707107 -1.316979 -0.707107
v -0.382683 -1.316979 -0.923880
v -0.000000 -0.490670 -1.117718
v 0.427732 -0.490670 -1.032637
v 0.790346 -0.490670 -0.790346
v 1.032637 -0.490670 -0.427732
v 1.117718 -0.490670 0.000000
v 1.032637 -0.490670 0.427732
v 0.790346 -0.490670 0.790346
v 0.427732 -0.490670 1.032637
v 0.000000 -0.490670 1.117718
v -0.427732 -0.490670 1.032637
v -0.790346 -0.490670 0.790346
v -1.032637 -0.490670 0.427732
v -1.117718 -0.490670 -0.000000
v -1.032637 -0.490670 -0.427732
v -0.790346 -0.490670 -0.790346
v -0.427732 -0.490670 -1.032637
v 0.000000 -1.316979 -0.891047
v 0.340989 -1.316979 -0.823220
v 0.630065 -1.316979 -0.630065
v 0.823220 -1.316979 -0.340989
v 0.891047 -1.316979 0.000000
v 0.823220 -1.316979 0.340989
v 0.630065 -1.316979 0.630065
v 0.340989 -1.316979 0.823220
v 0.000000 -1.316979 0.891047
v -0.340989 -1.316979 0.823220
v -0.630065 -1.316979 0.630066
v -0.823220 -1.316979 0.340989
v -0.891047 -1.316979 -0.000000
v -0.823220 -1.316979 -0.340989
v -0.630065 -1.316979 -0.630066
v -0.340988 -1.316979 -0.823220
v 0.000000 -1.228701 -0.891047
v 0.340989 -1.228701 -0.823220
v 0.630065 -1.228701 -0.630065
v 0.823220 -1.228701 -0.340989
v 0.891047 -1.228701 0.000000
v 0.823220 -1.228701 0.340989
v 0.630065 -1.228701 0.630065
v 0.340989 -1.228701 0.823220
v 0.000000 -1.228701 0.891047
v -0.340989 -1.228701 0.823220
v -0.630065 -1.228701 0.630066
v -0.823220 -1.228701 0.340989
v -0.891047 -1.228701 -0.000000
v -0.823220 -1.228701 -0.340989
v -0.630065 -1.228701 -0.630066
v -0.340988 -1.228701 -0.823220
v -0.000000 0.000000 -1.117718
v 0.427732 0.000000 -1.032637
v 0.790346 0.000000 -0.790346
v 1.032637 0.000000 -0.427732
v 1.117718 0.000000 0.000000
v 1.032637 0.000000 0.427732
v 0.790346 0.000000 0.790346
v 0.427732 0.000000 1.032637
v 0.000000 0.000000 1.117718
v -0.427732 0.000000 1.032637
v -0.790346 0.000000 0.790346
v -1.032637 0.000000 0.427732
v -1.117718 0.000000 -0.000000
v -1.032637 0.000000 -0.427732
v -0.790346 0.000000 -0.790346
v -0.427732 0.000000 -1.032637
vn 0.1932 0.1384 -0.9713
vn 0.5502 0.1384 -0.8235
vn 0.8235 0.1384 -0.5502
vn 0.9713 0.1384 -0.1932
vn 0.9713 0.1384 0.1932
vn 0.8235 0.1384 0.5502
vn 0.5502 0.1384 0.8235
vn 0.1932 0.1384 0.9713
vn -0.1932 0.1384 0.9713
vn -0.5502 0.1384 0.8235
vn -0.8235 0.1384 0.5502
vn -0.9713 0.1384 0.1932
vn -0.9713 0.1384 -0.1932
vn -0.8235 0.1384 -0.5502
vn 0.0000 1.0000 0.0000
vn -0.5502 0.1384 -0.8235
vn -0.1932 0.1384 -0.9713
vn -0.1951 0.0000 -0.9808
vn -0.5556 0.0000 -0.8315
vn -0.8315 0.0000 -0.5556
vn -0.9808 0.0000 -0.1951
vn -0.9808 0.0000 0.1951
vn -0.8315 0.0000 0.5556
vn -0.5556 0.0000 0.8315
vn -0.1951 0.0000 0.9808
vn 0.1951 0.0000 0.9808
vn 0.5556 0.0000 0.8315
vn 0.8315 0.0000 0.5556
vn 0.9808 0.0000 0.1951
vn 0.9808 0.0000 -0.1951
vn 0.8315 0.0000 -0.5556
vn 0.5556 0.0000 -0.8315
vn 0.1951 0.0000 -0.9808
vn 0.1932 -0.1384 -0.9713
vn 0.5502 -0.1384 -0.8235
vn 0.8235 -0.1384 -0.5502
vn 0.9713 -0.1384 -0.1932
vn 0.9713 -0.1384 0.1932
vn 0.8235 -0.1384 0.5502
vn 0.5502 -0.1384 0.8235
vn 0.1932 -0.1384 0.9713
vn -0.1932 -0.1384 0.9713
vn -0.5502 -0.1384 0.8235
vn -0.8235 -0.1384 0.5502
vn -0.9713 -0.1384 0.1932
vn -0.9713 -0.1384 -0.1932
vn -0.8235 -0.1384 -0.5502
vn 0.0000 -1.0000 0.0000
vn -0.5502 -0.1384 -0.8235
vn -0.1932 -0.1384 -0.9713
usemtl None
s off
f 17//1 1//1 2//1 18//1
f 18//2 2//2 3//2 19//2
f 19//3 3//3 4//3 20//3
f 20//4 4//4 5//4 21//4
f 21//5 5//5 6//5 22//5
f 22//6 6//6 7//6 23//6
f 23//7 7//7 8//7 24//7
f 24//8 8//8 9//8 25//8
f 25//9 9//9 10//9 26//9
f 26//10 10//10 11//10 27//10
f 27//11 11//11 12//11 28//11
f 28//12 12//12 13//12 29//12
f 29//13 13//13 14//13 30//13
f 30//14 14//14 15//14 31//14
f 15//15 14//15 46//15 47//15
f 31//16 15//16 16//16 32//16
f 32//17 16//17 1//17 17//17
f 144//18 32//18 17//18 129//18
f 143//19 31//19 32//19 144//19
f 142//20 30//20 31//20 143//20
f 141//21 29//21 30//21 142//21
f 140//22 28//22 29//22 141//22
f 139//23 27//23 28//23 140//23
f 138//24 26//24 27//24 139//24
f 137//25 25//25 26//25 138//25
f 136//26 24//26 25//26 137//26
f 135//27 23//27 24//27 136//27
f 134//28 22//28 23//28 135//28
f 133//29 21//29 22//29 134//29
f 132//30 20//30 21//30 133//30
f 131//31 19//31 20//31 132//31
f 130//32 18//32 19//32 131//32
f 129//33 17//33 18//33 130//33
f 37//22 36//22 52//22 53//22
f 3//15 2//15 34//15 35//15
f 8//15 7//15 39//15 40//15
f 13//15 12//15 44//15 45//15
f 6//15 5//15 37//15 38//15
f 11//15 10//15 42//15 43//15
f 16//15 15//15 47//15 48//15
f 4//15 3//15 35//15 36//15
f 9//15 8//15 40//15 41//15
f 2//15 1//15 33//15 34//15
f 14//15 13//15 45//15 46//15
f 7//15 6//15 38//15 39//15
f 12//15 11//15 43//15 44//15
f 1//15 16//15 48//15 33//15
f 5//15 4//15 36//15 37//15
f 10//15 9//15 41//15 42//15
f 50//15 49//15 64//15 63//15 62//15 61//15 60//15 59//15 58//15 57//15 56//15 55//15 54//15 53//15 52//15 51//15
f 45//30 44//30 60//30 61//30
f 38//21 37//21 53//21 54//21
f 46//29 45//29 61//29 62//29
f 39//20 38//20 54//20 55//20
f 47//28 46//28 62//28 63//28
f 40//19 39//19 55//19 56//19
f 48//27 47//27 63//27 64//27
f 41//18 40//18 56//18 57//18
f 34//25 33//25 49//25 50//25
f 33//26 48//26 64//26 49//26
f 42//33 41//33 57//33 58//33
f 35//24 34//24 50//24 51//24
f 43//32 42//32 58//32 59//32
f 36//23 35//23 51//23 52//23
f 44//31 43//31 59//31 60//31
f 81//34 82//34 66//34 65//34
f 82//35 83//35 67//35 66//35
f 83//36 84//36 68//36 67//36
f 84//37 85//37 69//37 68//37
f 85//38 86//38 70//38 69//38
f 86//39 87//39 71//39 70//39
f 87//40 88//40 72//40 71//40
f 88//41 89//41 73//41 72//41
f 89//42 90//42 74//42 73//42
f 90//43 91//43 75//43 74//43
f 91//44 92//44 76//44 75//44
f 92//45 93//45 77//45 76//45
f 93//46 94//46 78//46 77//46
f 94//47 95//47 79//47 78//47
f 79//48 111//48 110//48 78//48
f 95//49 96//49 80//49 79//49
f 96//50 81//50 65//50 80//50
f 144//18 129//18 81//18 96//18
f 143//19 144//19 96//19 95//19
f 142//20 143//20 95//20 94//20
f 141//21 142//21 94//21 93//21
f 140//22 141//22 93//22 92//22
f 139//23 140//23 92//23 91//23
f 138//24 139//24 91//24 90//24
f 137//25 138//25 90//25 89//25
f 136//26 137//26 89//26 88//26
f 135//27 136//27 88//27 87//27
f 134//28 135//28 87//28 86//28
f 133//29 134//29 86//29 85//29
f 132//30 133//30 85//30 84//30
f 131//31 132//31 84//31 83//31
f 130//32 131//32 83//32 82//32
f 129//33 130//33 82//33 81//33
f 101//22 117//22 116//22 100//22
f 67//48 99//48 98//48 66//48
f 72//48 104//48 103//48 71//48
f 77//48 109//48 108//48 76//48
f 70//48 102//48 101//48 69//48
f 75//48 107//48 106//48 74//48
f 80//48 112//48 111//48 79//48
f 68//48 100//48 99//48 67//48
f 73//48 105//48 104//48 72//48
f 66//48 98//48 97//48 65//48
f 78//48 110//48 109//48 77//48
f 71//48 103//48 102//48 70//48
f 76//48 108//48 107//48 75//48
f 65//48 97//48 112//48 80//48
f 69//48 101//48 100//48 68//48
f 74//48 106//48 105//48 73//48
f 114//48 115//48 116//48 117//48 118//48 119//48 120//48 121//48 122//48 123//48 124//48 125//48 126//48 127//48 128//48 113//48
f 109//30 125//30 124//30 108//30
f 102//21 118//21 117//21 101//21
f 110//29 126//29 125//29 109//29
f 103//20 119//20 118//20 102//20
f 111//28 127//28 126//28 110//28
f 104//19 120//19 119//19 103//19
f 112//27 128//27 127//27 111//27
f 105//18 121//18 120//18 104//18
f 98//25 114//25 113//25 97//25
f 97//26 113//26 128//26 112//26
f 106//33 122//33 121//33 105//33
f 99//24 115//24 114//24 98//24
f 107//32 123//32 122//32 106//32
f 100//23 116//23 115//23 99//23
f 108//31 124//31 123//31 107//31
